<mxfile host="app.diagrams.net" modified="2020-08-30T06:46:44.100Z" agent="5.0 (Macintosh; Intel Mac OS X 10_13_6) AppleWebKit/537.36 (KHTML, like Gecko) Chrome/86.0.4238.0 Safari/537.36" etag="1iMGqzpdadP2mXrW1tBw" version="13.6.5" type="github">
  <diagram id="C5RBs43oDa-KdzZeNtuy" name="Page-1">
    <mxGraphModel dx="946" dy="543" grid="1" gridSize="10" guides="1" tooltips="1" connect="1" arrows="1" fold="1" page="1" pageScale="1" pageWidth="827" pageHeight="1169" math="0" shadow="0">
      <root>
        <mxCell id="WIyWlLk6GJQsqaUBKTNV-0" />
        <mxCell id="WIyWlLk6GJQsqaUBKTNV-1" parent="WIyWlLk6GJQsqaUBKTNV-0" />
        <mxCell id="WIyWlLk6GJQsqaUBKTNV-3" value="触发创建沟通阶段【创建简历】" style="rounded=1;whiteSpace=wrap;html=1;fontSize=12;glass=0;strokeWidth=1;shadow=0;" parent="WIyWlLk6GJQsqaUBKTNV-1" vertex="1">
          <mxGeometry x="230" y="20" width="200" height="40" as="geometry" />
        </mxCell>
        <mxCell id="8gY5SdJMXIdewFGD8OJ7-4" value="" style="edgeStyle=orthogonalEdgeStyle;rounded=0;orthogonalLoop=1;jettySize=auto;html=1;" edge="1" parent="WIyWlLk6GJQsqaUBKTNV-1" source="8gY5SdJMXIdewFGD8OJ7-2" target="WIyWlLk6GJQsqaUBKTNV-3">
          <mxGeometry relative="1" as="geometry" />
        </mxCell>
        <mxCell id="8gY5SdJMXIdewFGD8OJ7-2" value="创建简历" style="rounded=1;whiteSpace=wrap;html=1;fontSize=12;glass=0;strokeWidth=1;shadow=0;" vertex="1" parent="WIyWlLk6GJQsqaUBKTNV-1">
          <mxGeometry x="30" y="20" width="120" height="40" as="geometry" />
        </mxCell>
        <mxCell id="8gY5SdJMXIdewFGD8OJ7-11" value="" style="edgeStyle=orthogonalEdgeStyle;rounded=0;orthogonalLoop=1;jettySize=auto;html=1;" edge="1" parent="WIyWlLk6GJQsqaUBKTNV-1" source="8gY5SdJMXIdewFGD8OJ7-7" target="8gY5SdJMXIdewFGD8OJ7-10">
          <mxGeometry relative="1" as="geometry" />
        </mxCell>
        <mxCell id="8gY5SdJMXIdewFGD8OJ7-16" value="" style="edgeStyle=orthogonalEdgeStyle;rounded=0;orthogonalLoop=1;jettySize=auto;html=1;" edge="1" parent="WIyWlLk6GJQsqaUBKTNV-1" source="8gY5SdJMXIdewFGD8OJ7-7" target="8gY5SdJMXIdewFGD8OJ7-15">
          <mxGeometry relative="1" as="geometry" />
        </mxCell>
        <mxCell id="8gY5SdJMXIdewFGD8OJ7-7" value="进入下一阶段" style="rounded=1;whiteSpace=wrap;html=1;fontSize=12;glass=0;strokeWidth=1;shadow=0;" vertex="1" parent="WIyWlLk6GJQsqaUBKTNV-1">
          <mxGeometry x="30" y="170" width="120" height="40" as="geometry" />
        </mxCell>
        <mxCell id="8gY5SdJMXIdewFGD8OJ7-14" value="" style="edgeStyle=orthogonalEdgeStyle;rounded=0;orthogonalLoop=1;jettySize=auto;html=1;" edge="1" parent="WIyWlLk6GJQsqaUBKTNV-1" source="8gY5SdJMXIdewFGD8OJ7-10" target="8gY5SdJMXIdewFGD8OJ7-12">
          <mxGeometry relative="1" as="geometry" />
        </mxCell>
        <mxCell id="8gY5SdJMXIdewFGD8OJ7-10" value="再次沟通" style="rounded=1;whiteSpace=wrap;html=1;fontSize=12;glass=0;strokeWidth=1;shadow=0;" vertex="1" parent="WIyWlLk6GJQsqaUBKTNV-1">
          <mxGeometry x="169" y="100" width="120" height="40" as="geometry" />
        </mxCell>
        <mxCell id="8gY5SdJMXIdewFGD8OJ7-12" value="更新当前阶段的：沟通结果、沟通记录、沟通时间、沟通人" style="rounded=1;whiteSpace=wrap;html=1;fontSize=12;glass=0;strokeWidth=1;shadow=0;" vertex="1" parent="WIyWlLk6GJQsqaUBKTNV-1">
          <mxGeometry x="339" y="100" width="320" height="40" as="geometry" />
        </mxCell>
        <mxCell id="8gY5SdJMXIdewFGD8OJ7-33" value="" style="edgeStyle=orthogonalEdgeStyle;rounded=0;orthogonalLoop=1;jettySize=auto;html=1;" edge="1" parent="WIyWlLk6GJQsqaUBKTNV-1" source="8gY5SdJMXIdewFGD8OJ7-15" target="8gY5SdJMXIdewFGD8OJ7-32">
          <mxGeometry relative="1" as="geometry" />
        </mxCell>
        <mxCell id="8gY5SdJMXIdewFGD8OJ7-15" value="通过" style="rounded=1;whiteSpace=wrap;html=1;fontSize=12;glass=0;strokeWidth=1;shadow=0;" vertex="1" parent="WIyWlLk6GJQsqaUBKTNV-1">
          <mxGeometry x="169" y="240" width="120" height="40" as="geometry" />
        </mxCell>
        <mxCell id="8gY5SdJMXIdewFGD8OJ7-19" value="&lt;span&gt;沟通结果&lt;/span&gt;" style="text;html=1;align=center;verticalAlign=middle;resizable=0;points=[];autosize=1;" vertex="1" parent="WIyWlLk6GJQsqaUBKTNV-1">
          <mxGeometry x="150" y="170" width="60" height="20" as="geometry" />
        </mxCell>
        <mxCell id="8gY5SdJMXIdewFGD8OJ7-23" value="" style="edgeStyle=orthogonalEdgeStyle;rounded=0;orthogonalLoop=1;jettySize=auto;html=1;" edge="1" parent="WIyWlLk6GJQsqaUBKTNV-1" source="8gY5SdJMXIdewFGD8OJ7-20" target="8gY5SdJMXIdewFGD8OJ7-22">
          <mxGeometry relative="1" as="geometry" />
        </mxCell>
        <mxCell id="8gY5SdJMXIdewFGD8OJ7-25" value="" style="edgeStyle=orthogonalEdgeStyle;rounded=0;orthogonalLoop=1;jettySize=auto;html=1;" edge="1" parent="WIyWlLk6GJQsqaUBKTNV-1" source="8gY5SdJMXIdewFGD8OJ7-20" target="8gY5SdJMXIdewFGD8OJ7-24">
          <mxGeometry relative="1" as="geometry" />
        </mxCell>
        <mxCell id="8gY5SdJMXIdewFGD8OJ7-20" value="是否有下一阶段" style="rhombus;whiteSpace=wrap;html=1;rounded=1;shadow=0;strokeWidth=1;glass=0;" vertex="1" parent="WIyWlLk6GJQsqaUBKTNV-1">
          <mxGeometry x="374.5" y="330" width="101" height="80" as="geometry" />
        </mxCell>
        <mxCell id="8gY5SdJMXIdewFGD8OJ7-36" value="" style="edgeStyle=orthogonalEdgeStyle;rounded=0;orthogonalLoop=1;jettySize=auto;html=1;" edge="1" parent="WIyWlLk6GJQsqaUBKTNV-1" source="8gY5SdJMXIdewFGD8OJ7-22" target="8gY5SdJMXIdewFGD8OJ7-35">
          <mxGeometry relative="1" as="geometry" />
        </mxCell>
        <mxCell id="8gY5SdJMXIdewFGD8OJ7-22" value="创建下一沟通阶段（沟通人，沟通时间，开始时间）" style="rounded=1;whiteSpace=wrap;html=1;fontSize=12;glass=0;strokeWidth=1;shadow=0;" vertex="1" parent="WIyWlLk6GJQsqaUBKTNV-1">
          <mxGeometry x="330" y="450" width="190" height="40" as="geometry" />
        </mxCell>
        <mxCell id="8gY5SdJMXIdewFGD8OJ7-41" value="" style="edgeStyle=orthogonalEdgeStyle;rounded=0;orthogonalLoop=1;jettySize=auto;html=1;" edge="1" parent="WIyWlLk6GJQsqaUBKTNV-1" source="8gY5SdJMXIdewFGD8OJ7-24" target="8gY5SdJMXIdewFGD8OJ7-40">
          <mxGeometry relative="1" as="geometry" />
        </mxCell>
        <mxCell id="8gY5SdJMXIdewFGD8OJ7-24" value="更新下一沟通阶段：沟通人，沟通时间，开始时间" style="rounded=1;whiteSpace=wrap;html=1;fontSize=12;glass=0;strokeWidth=1;shadow=0;" vertex="1" parent="WIyWlLk6GJQsqaUBKTNV-1">
          <mxGeometry x="540" y="350" width="155.5" height="40" as="geometry" />
        </mxCell>
        <mxCell id="8gY5SdJMXIdewFGD8OJ7-27" value="yes" style="text;html=1;align=center;verticalAlign=middle;resizable=0;points=[];autosize=1;" vertex="1" parent="WIyWlLk6GJQsqaUBKTNV-1">
          <mxGeometry x="490.5" y="340" width="30" height="20" as="geometry" />
        </mxCell>
        <mxCell id="8gY5SdJMXIdewFGD8OJ7-30" value="no" style="text;html=1;align=center;verticalAlign=middle;resizable=0;points=[];autosize=1;" vertex="1" parent="WIyWlLk6GJQsqaUBKTNV-1">
          <mxGeometry x="420.5" y="410" width="30" height="20" as="geometry" />
        </mxCell>
        <mxCell id="8gY5SdJMXIdewFGD8OJ7-34" value="" style="edgeStyle=orthogonalEdgeStyle;rounded=0;orthogonalLoop=1;jettySize=auto;html=1;" edge="1" parent="WIyWlLk6GJQsqaUBKTNV-1" source="8gY5SdJMXIdewFGD8OJ7-32" target="8gY5SdJMXIdewFGD8OJ7-20">
          <mxGeometry relative="1" as="geometry" />
        </mxCell>
        <mxCell id="8gY5SdJMXIdewFGD8OJ7-32" value="更新当前阶段的：沟通结果、沟通记录" style="rounded=1;whiteSpace=wrap;html=1;fontSize=12;glass=0;strokeWidth=1;shadow=0;" vertex="1" parent="WIyWlLk6GJQsqaUBKTNV-1">
          <mxGeometry x="365" y="240" width="120" height="40" as="geometry" />
        </mxCell>
        <mxCell id="8gY5SdJMXIdewFGD8OJ7-35" value="更新简历的当前沟通阶段" style="rounded=1;whiteSpace=wrap;html=1;fontSize=12;glass=0;strokeWidth=1;shadow=0;" vertex="1" parent="WIyWlLk6GJQsqaUBKTNV-1">
          <mxGeometry x="347.25" y="565" width="155.5" height="40" as="geometry" />
        </mxCell>
        <mxCell id="8gY5SdJMXIdewFGD8OJ7-40" value="更新简历的当前沟通阶段" style="rounded=1;whiteSpace=wrap;html=1;fontSize=12;glass=0;strokeWidth=1;shadow=0;" vertex="1" parent="WIyWlLk6GJQsqaUBKTNV-1">
          <mxGeometry x="540" y="470" width="155.5" height="40" as="geometry" />
        </mxCell>
      </root>
    </mxGraphModel>
  </diagram>
</mxfile>
